{"title":"Rated X 2000 DVDRip x264 AC3 5.1 titler","uid":11348124,"size":1525751621,"categoryP":"video","categoryS":"movies","magnet":"?xt=urn:btih:6d96e04d503716404131abdb43c8184e7b1de742&amp;dn=Rated+X+2000+DVDRip+x264+AC3+5.1+titler&amp;tr=udp%3A%2F%2Ftracker.openbittorrent.com%3A80&amp;tr=udp%3A%2F%2Fopen.demonii.com%3A1337&amp;tr=udp%3A%2F%2Ftracker.coppersurfer.tk%3A6969&amp;tr=udp%3A%2F%2Fexodus.desync.com%3A6969","seeders":0,"leechers":1,"uploader":"movieZ.freak","files":3,"time":1414879992,"description":"SOURCE: DVD5 PAL\n\n\n &lt;a href=&quot;\nhttp://www.imdb.com/title/tt0201776/&quot; rel=&quot;nofollow&quot; target=&quot;_NEW&quot;&gt;\nhttp://www.imdb.com/title/tt0201776/&lt;/a&gt;\n\n &lt;a href=&quot;\nhttp://www.rottentomatoes.com/m/rated_x/&quot; rel=&quot;nofollow&quot; target=&quot;_NEW&quot;&gt;\nhttp://www.rottentomatoes.com/m/rated_x/&lt;/a&gt;\n\n &lt;a href=&quot;\nhttp://en.wikipedia.org/wiki/Rated_X_%28film%29&quot; rel=&quot;nofollow&quot; target=&quot;_NEW&quot;&gt;\nhttp://en.wikipedia.org/wiki/Rated_X_%28film%29&lt;/a&gt;\n\n\n\nBASED ON THE TRUE STORY:\n--------------------------------------- &lt;a href=&quot;\nhttp://en.wikipedia.org/wiki/Mitchell_brothers&quot; rel=&quot;nofollow&quot; target=&quot;_NEW&quot;&gt;\nhttp://en.wikipedia.org/wiki/Mitchell_brothers&lt;/a&gt;\n\n\n\n\n- SAMPLE: Yes\n\n\n- SUBTITLE: Nope!\n\n\n- LANGUAGE / AUDIO: English\n\n\n\n\nDVD MENU:\n---------------- &lt;a href=&quot;\nhttp://someimage.com/prsa&quot; rel=&quot;nofollow&quot; target=&quot;_NEW&quot;&gt;\nhttp://someimage.com/prsa&lt;/a&gt;\n\n\n\nSCREENSHOTS:\n-------------------     &lt;a href=&quot;\nhttp://someimage.com/WKXy&quot; rel=&quot;nofollow&quot; target=&quot;_NEW&quot;&gt;\nhttp://someimage.com/WKXy&lt;/a&gt;\n\n- Russian DVD with english audio, this is ripped with english AC3 5.1 (untouched-original) audio only.\n\n- Do you ???REALLY??? :) wanna watch real brothers playing PORN KINGS brothers based on actual events?\n\n- Don't blame me if you don't like the movie. Thank you! :)\n\n- Check the sample.\n\n- Enjoy!\n\n\n\n\nDIRECTOR: Emilio Estevez\n &lt;a href=&quot;\nhttp://www.imdb.com/name/nm0000389/&quot; rel=&quot;nofollow&quot; target=&quot;_NEW&quot;&gt;\nhttp://www.imdb.com/name/nm0000389/&lt;/a&gt;\n\n\n\nCAST: Charlie Sheen, Emilio Estevez, Tracy Hutson, Megan Ward, Terry O'Quinn, Nicole de Boer, Peter Bogdanovich,...\n\n\nPLOT:\n-----------\nHaving created an empire on girly shows and skin flicks, Jim Mitchell and Artie Mitchell achieved mainstream success with Behind the Green Door (1972), one of only a handful of hardcore porn movies to do so. Brothers Emilio Estevez and Charlie Sheen star in the film about the life and troubled times of porn's dynamic duo. Opening with the 1991 fratricidal murder of Artie (Sheen) at the hands of Jim (Estevez, who also directs), the film flashes back to their father lecturing them on the importance of family. In 1967, while studying film at San Francisco State, Jim's professor (Peter Bogdanovich) upbraids him for including numerous leering shots of half-naked women in his student works. Soon Jim along with his brother, fresh out of the Army, starts a smut studio in an old warehouse. Their business takes off, and in no time they are being harassed by the police for obscenity. Along the way, the two hire former Ivory Snow model Marilyn Chambers, get married, and snort half of the cocaine in Bolivia. After the fleeting success of Green Door, their lives spiral into a drug-addled hell. Jim eventually bottoms out, but Artie, wracked by a profound inferiority complex, slides into cocaine dementia and begins to threaten Jim's family. Things eventually boil over, culminating in that bloody night in 1991. This film was screened at the 2000 Sundance Film Festival.\n\n\n************************************\n\n- Duration: 1h 49mn\n\n- Bit rate: 1446 Kbps\n\n- Res: 720 x 404\n\n- AR: 16:9\n\n- FPS: 25.000 fps\n\n- Audio: AC3, 6 channels, 384Kbps\n\n************************************\n\n\nGeneral\n--------------\nFormat : Matroska\nFormat version : Version 4 / Version 2\nFile size : 1.40 GiB\nDuration : 1h 49mn\nOverall bit rate : 1823 Kbps\nEncoded date : UTC 2014-11-01 20:36:04\nWriting application : mkvmerge v7.3.0 ('Nouages') 64bit built on Oct 22 2014 18:53:34\nWriting library : libebml v1.3.0 + libmatroska v1.4.1\n\n\nVideo\n---------\nFormat : AVC\nFormat/Info : Advanced Video Codec\nFormat profile : &lt;a class=&quot;__cf_email__&quot; href=&quot;/cdn-cgi/l/email-protection&quot; data-cfemail=&quot;9dd0fcf4f3ddd1aeb3ac&quot;&gt;[email&amp;#160;protected]&lt;/a&gt;&lt;script cf-hash='f9e31' type=&quot;text/javascript&quot;&gt;\n/* &lt;![CDATA[ */!function(){try{var t=&quot;currentScript&quot;in document?document.currentScript:function(){for(var t=document.getElementsByTagName(&quot;script&quot;),e=t.length;e--;)if(t[e].getAttribute(&quot;cf-hash&quot;))return t[e]}();if(t&amp;&amp;t.previousSibling){var e,r,n,i,c=t.previousSibling,a=c.getAttribute(&quot;data-cfemail&quot;);if(a){for(e=&quot;&quot;,r=parseInt(a.substr(0,2),16),n=2;a.length-n;n+=2)i=parseInt(a.substr(n,2),16)^r,e+=String.fromCharCode(i);e=document.createTextNode(e),c.parentNode.replaceChild(e,c)}}}catch(u){}}();/* ]]&gt; */&lt;/script&gt;\nFormat settings, CABAC : Yes\nFormat settings, ReFrames : 4 frames\nCodec ID : V_MPEG4/ISO/AVC\nDuration : 1h 49mn\nBit rate : 1446 Kbps\nWidth : 720 pixels\nHeight : 404 pixels\nDisplay aspect ratio : 16:9\nFrame rate mode : Constant\nFrame rate : 25.000 fps\nColor space : YUV\nChroma subsampling : 4:2:0\nBit depth : 8 bits\nScan type : Progressive\nBits/(Pixel*Frame) : 0.199\nStream size : 1.08 GiB (77%)\nWriting library : x264 core 130\nEncoding settings : cabac=1 / ref=4\nLanguage : English\nDefault : Yes\nForced : No\n\n\nAudio\n----------\nFormat : AC-3\nFormat/Info : Audio Coding 3\nMode extension : CM (complete main)\nFormat settings, Endianness : Big\nCodec ID : A_AC3\nDuration : 1h 49mn\nBit rate mode : Constant\nBit rate : 384 Kbps\nChannel(s) : 6 channels\nChannel positions : Front: L C R, Side: L R, LFE\nSampling rate : 48.0 KHz\nBit depth : 16 bits\nCompression mode : Lossy\nStream size : 302 MiB (21%)\nLanguage : English\nDefault : Yes\nForced : No","torrent":{"xt":"urn:btih:6d96e04d503716404131abdb43c8184e7b1de742","amp;dn":"Rated+X+2000+DVDRip+x264+AC3+5.1+titler","amp;tr":["udp%3A%2F%2Ftracker.openbittorrent.com%3A80","udp%3A%2F%2Fopen.demonii.com%3A1337","udp%3A%2F%2Ftracker.coppersurfer.tk%3A6969","udp%3A%2F%2Fexodus.desync.com%3A6969"],"infoHash":"6d96e04d503716404131abdb43c8184e7b1de742","infoHashBuffer":{"type":"Buffer","data":[109,150,224,77,80,55,22,64,65,49,171,219,67,200,24,78,123,29,231,66]},"announce":[],"urlList":[]}}